# xmcd
# 
# Track frame offsets:
#     150
#     25212
#     47500
#     67862
#     82862
#     104512
#     132150
#     149875
#     173650
#     203962
#     225550
#     243650
# 
# Disc length: 3522
# 
# Revision: 3
# Processed by: cddbd v1.5.2PL0 Copyright (c) Steve Scherf et al.
# Submitted via: BonkEnc v1.0.8
# 
DISCID=a10dc00c
DTITLE=陳昇 - 魔鬼的情詩
DYEAR=1994
DGENRE=Pop
TTITLE0=不再讓你孤單
TTITLE1=最後一次溫柔
TTITLE2=把悲傷留給自己
TTITLE3=擁擠的樂園
TTITLE4=紅色氣球
TTITLE5=責任
TTITLE6=然而
TTITLE7=凡人的告白書
TTITLE8=別讓我哭
TTITLE9=最後一盞燈
TTITLE10=獵人與羔羊
TTITLE11=半生情
EXTD=YEAR: 1994
EXTT0=
EXTT1=
EXTT2=
EXTT3=
EXTT4=
EXTT5=
EXTT6=
EXTT7=
EXTT8=
EXTT9=
EXTT10=
EXTT11=
PLAYORDER=
